<svg width="20" height="20" viewBox="0 0 20 20" fill="none" xmlns="http://www.w3.org/2000/svg">
<g clip-path="url(#clip0_167_7612)">
<path d="M8.46153 0H0.769246C0.344396 0 0 0.344396 0 0.769246V8.46158C0 8.88643 0.344396 9.23082 0.769246 9.23082H8.46158C8.88643 9.23082 9.23082 8.88643 9.23082 8.46158V0.769246C9.23078 0.344396 8.88638 0 8.46153 0ZM7.69233 7.69233H1.53845V1.53845H7.69228V7.69233H7.69233Z" fill="#E0E0E0"/>
<path d="M19.2311 0H11.5388C11.1139 0 10.7695 0.344396 10.7695 0.769246V8.46158C10.7695 8.88643 11.1139 9.23082 11.5388 9.23082H19.2311C19.656 9.23082 20.0004 8.88643 20.0004 8.46158V0.769246C20.0003 0.344396 19.6559 0 19.2311 0ZM18.4619 7.69233H12.308V1.53845H18.4619V7.69233Z" fill="#E0E0E0"/>
<path d="M8.46153 10.769H0.769246C0.344396 10.769 0 11.1134 0 11.5383V19.2306C0 19.6555 0.344396 19.9999 0.769246 19.9999H8.46158C8.88643 19.9999 9.23082 19.6555 9.23082 19.2306V11.5383C9.23078 11.1134 8.88638 10.769 8.46153 10.769ZM7.69233 18.4614H1.53845V12.3075H7.69228V18.4614H7.69233Z" fill="#E0E0E0"/>
<path d="M19.2311 10.769H11.5388C11.1139 10.769 10.7695 11.1134 10.7695 11.5383V19.2306C10.7695 19.6555 11.1139 19.9999 11.5388 19.9999H19.2311C19.656 19.9999 20.0004 19.6555 20.0004 19.2306V11.5383C20.0003 11.1134 19.6559 10.769 19.2311 10.769ZM18.4619 18.4614H12.308V12.3075H18.4619V18.4614Z" fill="#E0E0E0"/>
</g>
<defs>
<clipPath id="clip0_167_7612">
<rect width="20" height="20" fill="#E7E7E7"/>
</clipPath>
</defs>
</svg>
