<svg width="20" height="20" viewBox="0 0 20 20" fill="none" xmlns="http://www.w3.org/2000/svg">
<path d="M7.89583 12.8542L8.8125 11.9375L6.875 10L8.79167 8.08333L7.875 7.16667L5.04167 10L7.89583 12.8542ZM12.1042 12.8542L14.9583 10L12.1042 7.14583L11.1875 8.0625L13.125 10L11.1875 11.9375L12.1042 12.8542ZM3.75 17.5C3.41667 17.5 3.125 17.375 2.875 17.125C2.625 16.875 2.5 16.5833 2.5 16.25V3.75C2.5 3.41667 2.625 3.125 2.875 2.875C3.125 2.625 3.41667 2.5 3.75 2.5H16.25C16.5833 2.5 16.875 2.625 17.125 2.875C17.375 3.125 17.5 3.41667 17.5 3.75V16.25C17.5 16.5833 17.375 16.875 17.125 17.125C16.875 17.375 16.5833 17.5 16.25 17.5H3.75ZM3.75 16.25H16.25V3.75H3.75V16.25Z" fill="#FBC417"/>
</svg>
