<svg width="45" height="45" viewBox="0 0 45 45" fill="none" xmlns="http://www.w3.org/2000/svg">
<path d="M44.9846 7.39731C44.6621 5.76157 43.8539 4.24061 42.6471 2.99791C42.6448 2.99551 42.6425 2.993 42.6402 2.99059C42.0221 2.34527 40.9979 1.45806 39.6288 0.895846L39.5976 0.883068C38.2762 0.29705 36.8582 0 35.3831 0C33.2017 0 31.1383 0.651107 29.4161 1.8831C29.4161 1.8831 29.4066 1.88998 29.4045 1.8914C27.9239 2.96045 26.9468 4.48807 26.8258 4.68269C26.8204 4.6912 26.8151 4.69983 26.81 4.70846C26.0332 6.02531 25.6227 7.51798 25.6227 9.02518C25.6227 9.33818 25.6404 9.65499 25.6756 9.96668C25.7083 10.2579 25.8968 10.5146 26.1773 10.6503C26.3549 10.7363 26.5406 10.8078 26.7313 10.8644C27.4917 13.0165 29.1524 14.7376 31.2637 15.7055C30.3587 16.133 29.5459 16.6981 28.8428 17.3893C28.4853 17.7408 28.5036 18.2937 28.8837 18.6243C29.2638 18.9547 29.8618 18.9378 30.2193 18.5864C30.5572 18.2542 30.927 17.9591 31.3259 17.7031C31.8979 19.2015 33.3721 20.2993 35.0489 20.2993H35.1899C36.8695 20.2993 38.3423 19.1228 38.8806 17.5309C40.8758 18.6874 42.1523 20.748 42.1523 22.9521V32.0273L33.5582 37.1837C33.1204 37.4463 32.9958 37.9873 33.28 38.3921C33.4609 38.6499 33.7641 38.7902 34.0734 38.7902C34.2498 38.7902 34.428 38.7447 34.5868 38.6494L43.6114 33.2348C43.8798 33.0737 44.042 32.7978 44.042 32.5018V22.9521C44.042 19.8581 42.174 17.0848 39.2218 15.7011C42.0175 14.4109 43.9945 11.8069 44.1882 8.774C44.4549 8.55045 44.6868 8.2878 44.8722 7.99239C44.9852 7.81285 45.025 7.60175 44.9846 7.39731ZM35.19 18.5521H35.049C33.9182 18.5521 32.9629 17.5386 32.9629 16.3389C32.9629 16.324 32.9625 16.3091 32.9617 16.2943C33.6943 16.4724 34.4606 16.5666 35.2464 16.5666C35.9179 16.5666 36.5733 16.4974 37.2037 16.3662C37.1297 17.5475 36.2205 18.5521 35.19 18.5521ZM35.2462 14.8193C32.3971 14.8193 29.8709 13.25 28.7642 10.8976C30.0762 10.5544 31.0797 9.52525 31.2914 8.25766C31.8551 8.3246 32.4264 8.35835 32.9996 8.35835C34.9214 8.35835 36.7729 7.98584 38.431 7.27248C38.8584 8.62941 40.2157 9.62387 41.8193 9.62387C41.9363 9.62387 42.0525 9.61841 42.1676 9.60771C41.5014 12.576 38.6425 14.8193 35.2462 14.8193ZM41.8193 7.87663C40.9159 7.87663 40.1809 7.19724 40.1809 6.362V5.8758C40.1809 5.55789 39.9942 5.2651 39.6933 5.11122C39.3922 4.95724 39.0246 4.96674 38.7336 5.13591C37.071 6.10099 35.0882 6.61111 32.9995 6.61111C32.1826 6.61111 31.3712 6.53149 30.5878 6.37445C30.3087 6.31843 30.017 6.38231 29.7945 6.5482C29.5721 6.71409 29.4428 6.96407 29.4428 7.22825V7.75824C29.4428 8.59337 28.7079 9.27287 27.8046 9.27287C27.7427 9.27287 27.6815 9.2697 27.6211 9.26348C27.607 9.26151 27.5929 9.25988 27.5789 9.25856C27.5577 9.25594 27.5368 9.25278 27.5159 9.24939C27.5135 9.17447 27.5122 9.09977 27.5122 9.02529C27.5122 7.81307 27.8411 6.61307 28.4635 5.55429C28.466 5.55003 28.4686 5.54588 28.4706 5.54271C28.4786 5.52928 29.3321 4.16121 30.566 3.26973C30.5684 3.26788 30.5722 3.26526 30.5722 3.26526C31.9605 2.27221 33.624 1.74735 35.3831 1.74735C36.5731 1.74735 37.7161 1.98663 38.7804 2.45852C38.7988 2.46672 38.8261 2.47818 38.8618 2.49271C39.9126 2.9243 40.7194 3.62281 41.2143 4.13729C41.2197 4.14319 41.2252 4.14898 41.2309 4.15488C42.1226 5.06972 42.7458 6.17187 43.0467 7.36061C42.7376 7.68431 42.2907 7.87663 41.8193 7.87663ZM27.1988 30.2301C29.3399 29.0651 30.7801 26.9116 30.7801 24.4532C30.7801 23.3469 30.4884 22.3022 29.9726 21.3817C29.954 21.343 29.9329 21.3062 29.9093 21.2713C28.6826 19.1795 26.2862 17.7557 23.5369 17.7557C20.7869 17.7557 18.3901 19.1799 17.1637 21.2727C17.1408 21.3068 17.1202 21.3427 17.1021 21.3803C16.5856 22.3011 16.2938 23.3463 16.2938 24.4532C16.2938 26.9112 17.7333 29.0643 19.8737 30.2293C17.2242 31.4958 15.5459 34.0098 15.5459 36.792V39.9785C15.5459 40.2772 15.7109 40.5552 15.9834 40.7156L23.0296 44.8634C23.1844 44.9545 23.3606 45 23.537 45C23.7123 45 23.8875 44.955 24.0417 44.8649L31.1045 40.7389C31.38 40.578 31.5463 40.2973 31.5447 39.9961L31.5281 36.7879C31.5137 33.9991 29.8371 31.4934 27.1988 30.2301ZM23.5369 19.5031C25.1815 19.5031 26.655 20.1922 27.6379 21.2747C26.3647 21.612 24.9685 21.788 23.5371 21.788C22.1053 21.788 20.7089 21.612 19.4358 21.2747C20.4187 20.1922 21.8923 19.5031 23.5369 19.5031ZM18.1834 24.4532C18.1834 23.8857 18.2872 23.3399 18.4783 22.8318C20.0374 23.2935 21.7676 23.5353 23.5371 23.5353C25.3061 23.5353 27.0361 23.2935 28.5954 22.8318C28.7865 23.3399 28.8904 23.8857 28.8904 24.4532C28.8904 27.1827 26.4889 29.4034 23.5369 29.4034C20.585 29.4034 18.1834 27.1827 18.1834 24.4532ZM25.214 30.9695C25.0959 31.796 24.3119 32.3547 23.6025 32.3547H23.4875C22.7362 32.3547 21.9019 31.7672 21.7938 30.9547C22.3522 31.0827 22.9362 31.1507 23.5367 31.1507C24.1138 31.1507 24.6755 31.0879 25.214 30.9695ZM23.5389 43.0919L17.4355 39.4991V36.7921C17.4355 34.871 18.4853 33.1169 20.1845 32.0831C20.7749 33.3289 22.1667 34.1021 23.4875 34.1021H23.6025C25.0285 34.1021 26.2889 33.244 26.8334 32.0519C28.5572 33.0796 29.6282 34.8474 29.6382 36.7963L29.6524 39.5204L23.5389 43.0919ZM16.752 19.6405C17.0274 19.2306 16.8914 18.6919 16.4482 18.4372C16.1605 18.2718 15.8622 18.1219 15.5561 17.9884C16.7237 17.4365 17.7565 16.6459 18.5764 15.657C18.9141 15.7654 19.2766 15.8243 19.6536 15.8243C21.4693 15.8243 22.9464 14.4585 22.9464 12.7796V10.6084C22.9464 7.84845 21.8062 5.23452 19.7359 3.24833C17.6715 1.26792 14.9 0.117509 11.9319 0.00895518C11.6739 -0.000218419 11.433 -0.00240261 11.1969 0.00294866C8.24207 0.0689112 5.45483 1.17477 3.34861 3.11673C1.18923 5.10762 0 7.76829 0 10.6085V12.7797C0 14.4586 1.47718 15.8245 3.29298 15.8245C3.66998 15.8245 4.03234 15.7656 4.36989 15.6573C5.27306 16.7465 6.43478 17.5952 7.75039 18.1493C4.83488 19.5671 3.03161 22.3115 3.03161 25.3506V32.5021C3.03161 32.798 3.19365 33.0739 3.46223 33.235L12.0339 38.3778C12.1928 38.4731 12.371 38.5186 12.5474 38.5186C12.8567 38.5186 13.16 38.3782 13.3408 38.1205C13.6249 37.7156 13.5003 37.1746 13.0625 36.9121L4.92134 32.0275V25.3506C4.92134 23.3291 5.93931 21.4731 7.64468 20.2754C8.22955 21.8447 9.73142 23.0239 11.392 23.0239H11.533C13.3366 23.0239 14.7761 21.5144 15.283 19.828C15.3393 19.8583 15.3952 19.8895 15.4506 19.9212C15.894 20.1761 16.4766 20.0502 16.752 19.6405ZM5.62987 7.43313C5.01901 8.39242 4.69611 9.49042 4.69611 10.6085V12.7797C4.69611 13.1936 4.4854 13.5628 4.15789 13.8006C4.12978 13.8175 4.10297 13.8356 4.07745 13.8549C3.8534 13.9952 3.58329 14.0771 3.29286 14.0771C2.51913 14.0771 1.88973 13.4951 1.88973 12.7797V10.6084C1.88973 5.75807 5.99801 1.86694 11.2421 1.74965C11.4382 1.74517 11.6396 1.74713 11.8578 1.75489C17.016 1.94393 21.0566 5.83277 21.0566 10.6084V12.7796C21.0566 13.495 20.4271 14.077 19.6533 14.077C19.3629 14.077 19.0927 13.995 18.8685 13.8546C18.8431 13.8355 18.8164 13.8175 18.7884 13.8006C18.4609 13.5628 18.2501 13.1935 18.2501 12.7796V10.6084C18.2501 7.52454 15.7656 4.85961 12.4708 4.40955C12.2118 4.37395 11.9485 4.43969 11.7439 4.59062C11.5392 4.74155 11.4113 4.96412 11.3907 5.20547C11.3389 5.81617 11.2191 6.41835 11.0338 7.00273H6.44399C6.10939 7.00273 5.79959 7.16644 5.62987 7.43313ZM11.533 21.2765H11.392C10.3238 21.2765 9.2754 20.0775 9.2754 18.8558C9.2754 18.7804 9.26489 18.7063 9.24481 18.6352C9.96244 18.8039 10.7097 18.8918 11.4733 18.8918C12.1961 18.8918 12.9045 18.813 13.5868 18.6615C13.5226 19.9319 12.4828 21.2765 11.533 21.2765ZM11.4733 17.1445C9.27103 17.1445 7.23851 16.2174 5.90317 14.6337C6.33096 14.1199 6.58572 13.4767 6.58572 12.7796V10.6084C6.58572 9.96482 6.73383 9.33086 7.01705 8.75009H11.7158C12.1113 8.75009 12.4649 8.52238 12.602 8.17925C12.8383 7.58842 13.0165 6.97892 13.1351 6.35818C15.0268 6.99487 16.3605 8.68904 16.3605 10.6084V12.7796C16.3605 13.4767 16.6152 14.1199 17.0432 14.6337C15.7079 16.2175 13.6755 17.1445 11.4733 17.1445Z" fill="#8B44FF"/>
</svg>
