<svg width="45" height="45" viewBox="0 0 45 45" fill="none" xmlns="http://www.w3.org/2000/svg">
<path d="M42.462 9.05493C42.5472 8.92408 42.6012 8.75731 42.6177 8.5645L43.6446 5.33002C43.7461 5.18654 43.8087 4.9968 43.8214 4.77312L44.9498 1.21871C45.0248 0.937464 45.0248 0.656214 44.8748 0.374964C44.7247 0.187427 44.4996 0 44.2745 0H33.0197C32.7947 0 32.5696 0.187537 32.3445 0.468787L29.5933 5.625H15.4123L12.6111 0.374964C12.4611 0.187427 12.236 0 12.0109 0H0.756135C0.53104 0 0.305945 0.28125 0.155853 0.468787C0.00576073 0.656323 -0.0692415 1.03129 0.0808509 1.31254L1.21881 4.87727C1.23807 5.02218 1.27983 5.15017 1.34033 5.25784L2.42157 8.64492C2.44091 8.77687 2.47916 8.89431 2.53324 8.99484L3.62644 12.4193C3.64579 12.5354 3.6792 12.6406 3.72624 12.7317L5.40803 18C6.38341 21 8.10917 23.3437 10.21 24.75C10.301 24.8258 10.4045 24.9014 10.5101 24.9709V34.6875C10.5101 35.0624 10.6602 35.3437 10.8102 35.4375L22.0649 44.8125C22.215 44.9062 22.365 45 22.5151 45C22.6652 45 22.8152 45 22.9653 44.8125L34.22 35.4375C34.3701 35.25 34.5201 34.9687 34.5201 34.6875V24.9438C34.6258 24.8862 34.7292 24.8258 34.8202 24.75C36.9211 23.4375 38.6468 21 39.6222 18L41.2832 12.7679C41.3489 12.6544 41.3933 12.5176 41.4121 12.3618L42.462 9.05493ZM6.83369 17.3437L5.48312 13.1249H8.25926C8.70945 13.1249 9.00954 12.75 9.00954 12.1875C9.00954 11.625 8.70945 11.25 8.25926 11.25H4.88284L4.28256 9.37496H6.7586C7.20879 9.37496 7.50888 9 7.50888 8.4375C7.50888 7.875 7.20879 7.50004 6.7586 7.50004H3.68236L3.08208 5.625H6.00831C6.4585 5.625 6.7586 5.25004 6.7586 4.68754C6.7586 4.12504 6.4585 3.75007 6.00831 3.75007H2.48189L1.88161 1.87493H11.6357L13.7219 5.87813C13.5882 6.04237 13.5114 6.27836 13.5114 6.56246V9.37496H11.2605C10.8103 9.37496 10.5102 9.74993 10.5102 10.3124V22.875C8.93463 21.6561 7.58406 19.7811 6.83369 17.3437ZM33.0197 34.2187L22.5153 42.9374L12.0109 34.2187V24.3749V11.2499H14.2618C14.712 11.2499 15.0121 10.8749 15.0121 10.3124V7.49993H30.0184V10.3124C30.0184 10.8749 30.3185 11.2499 30.7687 11.2499H33.0197V24.3749V34.2187H33.0197ZM34.5203 22.8749V10.3124C34.5203 9.74993 34.2202 9.37496 33.77 9.37496H31.5191V6.56246C31.5191 6.27836 31.4423 6.04237 31.3086 5.87813L33.3948 1.87493H43.1489L42.5486 3.74996H39.0222C38.572 3.74996 38.2719 4.12493 38.2719 4.68743C38.2719 5.24993 38.572 5.62489 39.0222 5.62489H41.9484L41.3482 7.49993H38.2718C37.8216 7.49993 37.5216 7.87489 37.5216 8.43739C37.5216 8.99989 37.8216 9.37485 38.2718 9.37485H40.7479L40.1476 11.2499H36.7712C36.321 11.2499 36.0209 11.6249 36.0209 12.1874C36.0209 12.7499 36.321 13.1248 36.7712 13.1248H39.5473L38.1967 17.3436C37.4465 19.7811 36.1711 21.6561 34.5203 22.8749Z" fill="#27C8E8"/>
</svg>
