<svg width="46" height="46" viewBox="0 0 46 46" fill="none" xmlns="http://www.w3.org/2000/svg">
<path d="M22.856 45.7143C22.6125 45.7143 22.3691 45.6175 22.1832 45.4239C21.2264 44.4274 20.2533 43.4248 19.3123 42.4551C9.86995 32.7249 0.951172 23.5342 0.951172 13.3514C0.951172 10.1986 2.13365 6.90425 4.19537 4.31324C6.40861 1.53183 9.26024 0 12.2248 0C17.526 0 20.5439 3.68934 22.8559 8.05933C25.1674 3.68934 28.1823 0 33.4701 0C36.4418 0 39.2985 1.53163 41.5141 4.31284C43.5774 6.90286 44.7608 10.1973 44.7608 13.3514C44.7608 23.5098 35.8738 32.6776 26.465 42.3836C25.5027 43.3763 24.5076 44.4029 23.5293 45.4233C23.3434 45.6173 23.0996 45.7143 22.856 45.7143ZM12.2248 1.98768C6.94852 1.98768 2.85594 8.0964 2.85594 13.3515C2.85594 22.7037 11.4996 31.6108 20.6507 41.0409C21.3738 41.786 22.1156 42.5505 22.8555 43.3176C23.6172 42.5266 24.3813 41.7382 25.126 40.9701C34.2438 31.5642 42.8561 22.68 42.8561 13.3514C42.8561 8.0963 38.7561 1.98758 33.4702 1.98758C28.8174 1.98758 26.2024 5.44835 23.7075 10.6446C23.5461 10.9809 23.2165 11.1932 22.856 11.1932C22.4955 11.1932 22.166 10.9809 22.0045 10.6446C19.5095 5.44835 16.8917 1.98768 12.2248 1.98768Z" fill="#3DC02A"/>
<path d="M32.3811 21.8635C32.0626 21.8635 31.7653 21.6974 31.5887 21.421L28.5716 16.6986L25.5544 21.421C25.3779 21.6974 25.0804 21.8635 24.762 21.8635C24.4437 21.8635 24.1462 21.6974 23.9697 21.421L20.9525 16.6986L17.9354 21.421C17.7588 21.6974 17.4614 21.8635 17.143 21.8635C16.8246 21.8635 16.5272 21.6974 16.3506 21.421L13.3335 16.6986L10.3163 21.421C10.1397 21.6974 9.84231 21.8635 9.52392 21.8635C9.20554 21.8635 8.90811 21.6974 8.73154 21.421L7.10944 18.8821H0.952383C0.426382 18.8821 0 18.4372 0 17.8883C0 17.3395 0.426382 16.8945 0.952383 16.8945H7.61906C7.93754 16.8945 8.23487 17.0606 8.41145 17.3371L9.52383 19.0781L12.541 14.3557C12.7175 14.0792 13.015 13.9132 13.3334 13.9132C13.6517 13.9132 13.9492 14.0792 14.1257 14.3557L17.1429 19.0781L20.16 14.3557C20.3366 14.0792 20.634 13.9132 20.9524 13.9132C21.2708 13.9132 21.5682 14.0792 21.7448 14.3557L24.762 19.0782L27.7791 14.3557C27.9557 14.0792 28.2531 13.9132 28.5715 13.9132C28.8899 13.9132 29.1873 14.0792 29.3639 14.3557L32.381 19.0781L35.3982 14.3557C35.5865 14.061 35.9116 13.8927 36.2497 13.9151C36.5885 13.937 36.8905 14.1456 37.0424 14.4624L38.6839 17.8882H44.7619C45.2878 17.8882 45.7143 18.3332 45.7143 18.882C45.7143 19.4309 45.2878 19.8758 44.7619 19.8758H38.0952C37.7345 19.8758 37.4047 19.6631 37.2434 19.3264L36.0725 16.883L33.1734 21.4209C32.9968 21.6974 32.6995 21.8635 32.3811 21.8635Z" fill="#3DC02A"/>
</svg>
