<svg width="40" height="40" viewBox="0 0 40 40" fill="none" xmlns="http://www.w3.org/2000/svg">
<path d="M33.9388 11.328L36.0008 9.8008L35.2112 7.8996L32.698 8.2748C32.4112 7.9148 32.0808 7.6028 31.7236 7.3216L32.1016 4.7908L30.1996 4L28.6816 6.0508C28.2372 6 27.784 6.01 27.3268 6.0624L25.7996 4.0024L23.8984 4.7904L24.2736 7.3032C23.9144 7.59 23.6016 7.922 23.3204 8.2772L20.7892 7.8996L20 9.802L22.05 11.3204C21.9992 11.7644 22.0092 12.2176 22.0616 12.6748L20.0016 14.202L20.7892 16.1032L23.3024 15.728C23.5884 16.0872 23.9204 16.3984 24.276 16.6812L23.8988 19.2124L25.8016 20.0028L27.3196 17.9508C27.764 18.0028 28.2172 17.9924 28.6744 17.9404L30.2004 20L32.102 19.2124L31.7268 16.6992C32.086 16.4128 32.3988 16.0808 32.68 15.7252L35.2112 16.1028L36.0008 14.2L33.9504 12.682C34.0012 12.238 33.9912 11.7848 33.9388 11.328ZM28.0004 14.0008C26.8964 14.0008 26.0004 13.104 26.0004 12.0008C26.0004 10.8952 26.8964 10.0008 28.0004 10.0008C29.1044 10.0008 30.0004 10.8952 30.0004 12.0008C30.0004 13.104 29.1044 14.0008 28.0004 14.0008Z" fill="#3DC02A"/>
<path d="M12.0004 12C7.5816 12 4 15.582 4 20C4 22.2096 4.8948 24.2096 6.344 25.6564C6.344 25.6564 6.7168 26.0292 7.172 26.4844C7.6272 26.9396 8.0004 27.7672 8.0004 28.3228V28.6664H16.0004C16.0004 28.5584 16.0004 28.4452 16.0004 28.3228C16.0004 27.7672 16.3728 26.94 16.8284 26.4844C17.284 26.0288 17.6564 25.6564 17.6564 25.6564C19.1056 24.2096 19.9996 22.2096 19.9996 20C20 15.582 16.4188 12 12.0004 12Z" fill="#3DC02A"/>
<path d="M8 30.6665V33.3329C8 34.0665 8.6 34.6665 9.3332 34.6665H10L10.6664 36.0001H13.3328L14 34.6665H14.6668C15.3996 34.6665 16 34.0665 16 33.3329V30.6665H8Z" fill="#3DC02A"/>
<path d="M20 7.3332L14.6672 4V6C10.8076 5.9944 6.948 7.4688 4 10.4164L5.886 12.3016C8.2316 9.958 11.362 8.6664 14.6672 8.6664V10.6664L20 7.3332Z" fill="#3DC02A"/>
<path d="M28.0002 20.6665L24.6662 26.0001H26.6666C26.6666 30.0493 23.0834 33.3329 18.667 33.3329V36.0001C24.5562 36.0001 29.3338 31.5221 29.3338 26.0001H31.333L28.0002 20.6665Z" fill="#3DC02A"/>
</svg>
