<svg width="80" height="80" viewBox="0 0 80 80" fill="none" xmlns="http://www.w3.org/2000/svg">
<path d="M0 6C0 2.68629 2.68629 0 6 0H74C77.3137 0 80 2.68629 80 6V74C80 77.3137 77.3137 80 74 80H6C2.68629 80 0 77.3137 0 74V6Z" fill="white"/>
<g clip-path="url(#clip0_167_8239)">
<path d="M50.875 12H29.125C24.318 12 19.7078 13.8437 16.3087 17.1256C12.9096 20.4075 11 24.8587 11 29.5L11 50.5C11 55.1413 12.9096 59.5925 16.3087 62.8744C19.7078 66.1563 24.318 68 29.125 68H50.875C55.682 68 60.2922 66.1563 63.6913 62.8744C67.0904 59.5925 69 55.1413 69 50.5V29.5C69 24.8587 67.0904 20.4075 63.6913 17.1256C60.2922 13.8437 55.682 12 50.875 12ZM63.5625 50.5C63.5625 57.255 57.8712 62.75 50.875 62.75H29.125C22.1288 62.75 16.4375 57.255 16.4375 50.5V29.5C16.4375 22.745 22.1288 17.25 29.125 17.25H50.875C57.8712 17.25 63.5625 22.745 63.5625 29.5V50.5Z" fill="url(#paint0_linear_167_8239)"/>
<path d="M40 26C36.1544 26 32.4662 27.475 29.747 30.1005C27.0277 32.726 25.5 36.287 25.5 40C25.5 43.713 27.0277 47.274 29.747 49.8995C32.4662 52.525 36.1544 54 40 54C43.8456 54 47.5338 52.525 50.253 49.8995C52.9723 47.274 54.5 43.713 54.5 40C54.5 36.287 52.9723 32.726 50.253 30.1005C47.5338 27.475 43.8456 26 40 26ZM40 48.75C37.5974 48.7472 35.2939 47.8245 33.595 46.1841C31.8961 44.5438 30.9404 42.3198 30.9375 40C30.9375 35.1735 35.0047 31.25 40 31.25C44.9953 31.25 49.0625 35.1735 49.0625 40C49.0625 44.823 44.9953 48.75 40 48.75Z" fill="url(#paint1_linear_167_8239)"/>
<path d="M55.5884 26.8155C56.6555 26.8155 57.5205 25.9803 57.5205 24.95C57.5205 23.9197 56.6555 23.0845 55.5884 23.0845C54.5213 23.0845 53.6562 23.9197 53.6562 24.95C53.6562 25.9803 54.5213 26.8155 55.5884 26.8155Z" fill="url(#paint2_linear_167_8239)"/>
</g>
<defs>
<linearGradient id="paint0_linear_167_8239" x1="16.307" y1="62.876" x2="62.0308" y2="15.5192" gradientUnits="userSpaceOnUse">
<stop stop-color="#FFC107"/>
<stop offset="0.507" stop-color="#F44336"/>
<stop offset="0.99" stop-color="#9C27B0"/>
</linearGradient>
<linearGradient id="paint1_linear_167_8239" x1="29.7485" y1="49.898" x2="49.5323" y2="29.4076" gradientUnits="userSpaceOnUse">
<stop stop-color="#FFC107"/>
<stop offset="0.507" stop-color="#F44336"/>
<stop offset="0.99" stop-color="#9C27B0"/>
</linearGradient>
<linearGradient id="paint2_linear_167_8239" x1="54.2218" y1="26.2695" x2="56.8591" y2="23.5379" gradientUnits="userSpaceOnUse">
<stop stop-color="#FFC107"/>
<stop offset="0.507" stop-color="#F44336"/>
<stop offset="0.99" stop-color="#9C27B0"/>
</linearGradient>
<clipPath id="clip0_167_8239">
<rect width="58" height="56" fill="white" transform="translate(11 12)"/>
</clipPath>
</defs>
</svg>
