<svg width="80" height="80" viewBox="0 0 80 80" fill="none" xmlns="http://www.w3.org/2000/svg">
<path d="M0 6C0 2.68629 2.68629 0 6 0H74C77.3137 0 80 2.68629 80 6V74C80 77.3137 77.3137 80 74 80H6C2.68629 80 0 77.3137 0 74V6Z" fill="white"/>
<g clip-path="url(#clip0_167_8266)">
<path fill-rule="evenodd" clip-rule="evenodd" d="M53.86 17.6795L54.3033 17.9525L58.9233 21.0325C59.5077 21.4225 59.9965 21.9393 60.3532 22.5446C60.71 23.1498 60.9255 23.8277 60.9837 24.5279L61 24.9152V54.1729C60.9999 55.2859 60.602 56.3623 59.8781 57.2078C59.1541 58.0533 58.1518 58.6121 57.052 58.7835L56.6903 58.8255L29.7893 60.8952C29.0733 60.9502 28.3542 60.8393 27.688 60.571C27.0219 60.3026 26.4266 59.8842 25.9487 59.3482L25.699 59.0425L20.4 51.9772C19.5947 50.9031 19.1152 49.6202 19.0187 48.2812L19 47.7772V23.4942C19.0001 22.3811 19.398 21.3047 20.1219 20.4593C20.8459 19.6138 21.8482 19.0549 22.948 18.8835L23.3097 18.8415L49.8817 16.7975C51.2651 16.691 52.649 16.998 53.8577 17.6795H53.86ZM56.3333 28.5202L30.6667 30.4942V56.1469L56.3333 54.1729V28.5202ZM49.3333 31.8335C49.9522 31.8335 50.5457 32.0794 50.9832 32.517C51.4208 32.9545 51.6667 33.548 51.6667 34.1669V50.5002C51.6667 51.119 51.4208 51.7125 50.9832 52.1501C50.5457 52.5877 49.9522 52.8335 49.3333 52.8335H48.1667C47.768 52.8336 47.376 52.7316 47.028 52.5372C46.68 52.3428 46.3876 52.0624 46.1787 51.7229L40 41.6802V51.6669C40 52.2857 39.7542 52.8792 39.3166 53.3168C38.879 53.7544 38.2855 54.0002 37.6667 54.0002C37.0478 54.0002 36.4543 53.7544 36.0168 53.3168C35.5792 52.8792 35.3333 52.2857 35.3333 51.6669V35.3335C35.3333 34.7147 35.5792 34.1212 36.0168 33.6836C36.4543 33.246 37.0478 33.0002 37.6667 33.0002H38.8333C39.232 33.0001 39.624 33.1021 39.972 33.2965C40.32 33.491 40.6124 33.7713 40.8213 34.1109L47 44.1512V34.1669C47 33.548 47.2458 32.9545 47.6834 32.517C48.121 32.0794 48.7145 31.8335 49.3333 31.8335ZM50.2387 21.4502L26.5717 23.2702L29.2247 25.9232L54.8867 23.9515L51.7133 21.8352C51.2787 21.5454 50.7595 21.4099 50.2387 21.4502Z" fill="black"/>
</g>
<defs>
<clipPath id="clip0_167_8266">
<rect width="56" height="56" fill="white" transform="translate(12 12)"/>
</clipPath>
</defs>
</svg>
