<svg width="20" height="20" viewBox="0 0 20 20" fill="none" xmlns="http://www.w3.org/2000/svg">
<g clip-path="url(#clip0_167_7635)">
<path d="M15.6458 7.08317L12.4167 3.854L13.875 2.39567C14.1111 2.15956 14.4028 2.0415 14.75 2.0415C15.0972 2.0415 15.3889 2.15956 15.625 2.39567L17.1042 3.87484C17.3403 4.11095 17.4583 4.40262 17.4583 4.74984C17.4583 5.09706 17.3403 5.38873 17.1042 5.62484L15.6458 7.08317ZM2.5 16.9998V13.7498L6.54167 9.70817L1.9375 5.08317L5.5625 1.4165L10.2083 6.06234L12.4167 3.854L15.6458 7.08317L13.4375 9.2915L18.0833 13.9373L14.4375 17.5415L9.8125 12.9373L5.75 16.9998H2.5ZM7.4375 8.81234L9.3125 6.93734L7.79167 5.4165L6.79167 6.4165L5.91667 5.5415L6.91667 4.5415L5.58333 3.20817L3.70833 5.08317L7.4375 8.81234ZM14.3958 15.7915L16.2708 13.9165L14.9375 12.5832L13.9375 13.5832L13.0625 12.7082L14.0625 11.7082L12.5417 10.1873L10.6667 12.0623L14.3958 15.7915ZM3.75 15.7498H5.20833L13.8542 7.104L12.3958 5.64567L3.75 14.2915V15.7498Z" fill="#3DC02A"/>
</g>
<defs>
<clipPath id="clip0_167_7635">
<rect width="20" height="20" fill="white"/>
</clipPath>
</defs>
</svg>
