<svg width="40" height="40" viewBox="0 0 40 40" fill="none" xmlns="http://www.w3.org/2000/svg">
<g clip-path="url(#clip0_167_4483)">
<path d="M9.45312 15.3425C8.03875 16.4132 7.10938 18.0935 7.10938 20C7.10938 20.3872 7.10938 28.6445 7.10938 28.2032H9.45312C9.45312 27.8412 9.45312 14.8113 9.45312 15.3425Z" fill="#8B44FF"/>
<path d="M32.8906 20.0004C32.8906 18.0938 31.9613 16.4135 30.5469 15.3428C30.5469 15.5835 30.5469 28.4442 30.5469 28.2035H32.8906C32.8906 27.4639 32.8906 19.6539 32.8906 20.0004Z" fill="#8B44FF"/>
<path d="M20 16.6406C20.6472 16.6406 21.1719 16.116 21.1719 15.4688C21.1719 14.8215 20.6472 14.2969 20 14.2969C19.3528 14.2969 18.8281 14.8215 18.8281 15.4688C18.8281 16.116 19.3528 16.6406 20 16.6406Z" fill="#8B44FF"/>
<path d="M20.6458 0.428047L19.9958 0L19.3492 0.432578C16.7586 2.16422 14.7666 4.54461 13.4707 7.26586H26.522C25.0834 4.26805 23.0878 2.03938 20.6458 0.428047Z" fill="#8B44FF"/>
<path d="M11.7968 14.5543V25.8593H13.812L12.0531 32.8905H9.23723C8.75184 31.5294 7.46325 30.5468 5.93748 30.5468C3.9989 30.5468 2.42188 32.1238 2.42188 34.0624C2.42188 36.0009 3.9989 37.578 5.93748 37.578C7.46325 37.578 8.75184 36.5953 9.23723 35.2342H13.8842L16.227 25.8593H18.828V33.1845C17.4669 33.6699 16.4843 34.9584 16.4843 36.4842C16.4843 38.4228 18.0613 39.9998 19.9999 39.9998C21.9385 39.9998 23.5155 38.4228 23.5155 36.4842C23.5155 34.9584 22.5329 33.6699 21.1718 33.1845V25.8593H23.7729L26.1156 35.2342H30.7626C31.248 36.5953 32.5365 37.578 34.0623 37.578C36.0009 37.578 37.5779 36.0009 37.5779 34.0624C37.5779 32.1238 36.0009 30.5468 34.0623 30.5468C32.5365 30.5468 31.248 31.5294 30.7626 32.8905H27.9467L26.1878 25.8593H28.203V14.5543C28.203 12.8683 27.9216 11.2048 27.4345 9.60938H12.5619C12.0791 11.1941 11.7968 12.8509 11.7968 14.5543ZM19.9999 11.9531C21.9385 11.9531 23.5155 13.5301 23.5155 15.4687C23.5155 17.4073 21.9385 18.9843 19.9999 18.9843C18.0613 18.9843 16.4843 17.4073 16.4843 15.4687C16.4843 13.5301 18.0613 11.9531 19.9999 11.9531Z" fill="#8B44FF"/>
</g>
<defs>
<clipPath id="clip0_167_4483">
<rect width="40" height="40" fill="white"/>
</clipPath>
</defs>
</svg>
