<svg width="20" height="20" viewBox="0 0 20 20" fill="none" xmlns="http://www.w3.org/2000/svg">
<path d="M12.9798 12.4792L13.6465 11.8125L11.8132 9.97917C11.9659 9.74306 12.0944 9.49753 12.1986 9.24258C12.3027 8.98764 12.3548 8.71928 12.3548 8.4375C12.3548 7.64583 12.084 6.97917 11.5423 6.4375C11.0007 5.89583 10.334 5.625 9.54232 5.625C8.75065 5.625 8.08398 5.89635 7.54232 6.43906C7.00065 6.98179 6.72982 7.64845 6.72982 8.43906C6.72982 9.22969 7.00065 9.89583 7.54232 10.4375C8.08398 10.9792 8.75065 11.25 9.54232 11.25C9.84907 11.25 10.1376 11.1979 10.4078 11.0938C10.678 10.9896 10.9432 10.8611 11.2032 10.7083L12.9798 12.4792ZM9.54323 10.2083C9.05651 10.2083 8.63954 10.035 8.29232 9.68842C7.9451 9.34182 7.77148 8.92515 7.77148 8.43842C7.77148 7.95169 7.94488 7.53472 8.29167 7.1875C8.63846 6.84028 9.05535 6.66667 9.54232 6.66667C10.0284 6.66667 10.4451 6.83997 10.7923 7.18658C11.1395 7.53318 11.3132 7.94985 11.3132 8.43658C11.3132 8.92331 11.1398 9.34028 10.7932 9.6875C10.4466 10.0347 10.03 10.2083 9.54323 10.2083ZM1.45898 17.5C1.2819 17.5 1.13346 17.4398 1.01367 17.3193C0.89388 17.1988 0.833984 17.0495 0.833984 16.8714C0.833984 16.6932 0.89388 16.5451 1.01367 16.4271C1.13346 16.309 1.2819 16.25 1.45898 16.25H18.5423C18.7194 16.25 18.8678 16.3102 18.9876 16.4307C19.1074 16.5512 19.1673 16.7005 19.1673 16.8786C19.1673 17.0568 19.1074 17.2049 18.9876 17.3229C18.8678 17.441 18.7194 17.5 18.5423 17.5H1.45898ZM2.91732 15C2.58398 15 2.29232 14.875 2.04232 14.625C1.79232 14.375 1.66732 14.0833 1.66732 13.75V3.75C1.66732 3.41667 1.79232 3.125 2.04232 2.875C2.29232 2.625 2.58398 2.5 2.91732 2.5H17.084C17.4173 2.5 17.709 2.625 17.959 2.875C18.209 3.125 18.334 3.41667 18.334 3.75V13.75C18.334 14.0833 18.209 14.375 17.959 14.625C17.709 14.875 17.4173 15 17.084 15H2.91732ZM2.91732 13.75H17.084V3.75H2.91732V13.75Z" fill="#27C8E8"/>
</svg>
