<svg width="80" height="80" viewBox="0 0 80 80" fill="none" xmlns="http://www.w3.org/2000/svg">
<path d="M0 6C0 2.68629 2.68629 0 6 0H74C77.3137 0 80 2.68629 80 6V74C80 77.3137 77.3137 80 74 80H6C2.68629 80 0 77.3137 0 74V6Z" fill="white"/>
<g clip-path="url(#clip0_167_8207)">
<path d="M58.7063 22.9967C58.667 22.7167 58.4172 22.5618 58.2107 22.5447C56.6885 22.4324 55.1662 22.321 53.6438 22.2104C53.6438 22.2104 50.615 19.258 50.2826 18.9312C49.95 18.6046 49.3004 18.7039 49.0482 18.7768C49.0111 18.7875 48.3865 18.9768 47.3533 19.2908C46.3416 16.4321 44.5561 13.8051 41.4148 13.8051C41.3281 13.8051 41.2389 13.8085 41.1496 13.8135C40.2563 12.6534 39.1496 12.1494 38.1938 12.1494C30.8764 12.1494 27.3805 21.1315 26.2844 25.6959C23.441 26.561 21.4211 27.176 21.1631 27.2556C19.576 27.7445 19.5258 27.7936 19.3174 29.262C19.1605 30.3738 15.0078 61.9081 15.0078 61.9081L47.3668 67.8614L64.9 64.137C64.9 64.137 58.7449 23.2767 58.7063 22.9967ZM45.5648 19.8339L42.8268 20.666C42.8277 20.4765 42.8287 20.2901 42.8287 20.0863C42.8287 18.3096 42.5775 16.8791 42.1746 15.7451C43.7932 15.9446 44.8711 17.7529 45.5648 19.8339ZM40.1668 16.0974C40.6168 17.2046 40.9094 18.7935 40.9094 20.9376C40.9094 21.0473 40.9084 21.1476 40.9074 21.249C39.1268 21.7906 37.1918 22.3786 35.2525 22.9685C36.3414 18.8422 38.3824 16.8492 40.1668 16.0974ZM37.9928 14.0766C38.3086 14.0766 38.6268 14.1819 38.9313 14.3877C36.5861 15.4712 34.0725 18.2003 33.0109 23.6501L28.541 25.0095C29.7844 20.8526 32.7369 14.0766 37.9928 14.0766Z" fill="#95BF46"/>
<path d="M58.2096 22.5445C56.6873 22.4322 55.165 22.3208 53.6426 22.2102C53.6426 22.2102 50.6139 19.2578 50.2814 18.931C50.157 18.8094 49.9893 18.7471 49.8139 18.7202L47.3672 67.8608L64.8988 64.1368C64.8988 64.1368 58.7438 23.2765 58.7051 22.9965C58.6658 22.7165 58.416 22.5616 58.2096 22.5445Z" fill="#5E8E3E"/>
<path d="M41.4143 32.0575L39.2523 38.3721C39.2523 38.3721 37.3582 37.3794 35.0363 37.3794C31.6324 37.3794 31.4611 39.477 31.4611 40.0055C31.4611 42.8895 39.1174 43.9945 39.1174 50.7498C39.1174 56.0647 35.6844 59.487 31.0555 59.487C25.5008 59.487 22.6602 56.0925 22.6602 56.0925L24.1475 51.2673C24.1475 51.2673 27.0674 53.7288 29.5312 53.7288C31.1412 53.7288 31.7961 52.4841 31.7961 51.5747C31.7961 47.8127 25.5148 47.6449 25.5148 41.4632C25.5148 36.2604 29.318 31.2256 36.9949 31.2256C39.9529 31.2256 41.4143 32.0575 41.4143 32.0575Z" fill="white"/>
</g>
<defs>
<clipPath id="clip0_167_8207">
<rect width="50" height="56" fill="white" transform="translate(15 12)"/>
</clipPath>
</defs>
</svg>
