<svg width="80" height="80" viewBox="0 0 80 80" fill="none" xmlns="http://www.w3.org/2000/svg">
<rect width="80" height="80" rx="6" fill="white"/>
<path d="M23.5437 47.7737C23.5437 50.9517 20.9518 53.5474 17.7733 53.5474C14.5953 53.5474 12 50.9517 12 47.7737C12 44.5957 14.5958 42 17.7738 42H23.5441L23.5437 47.7737ZM26.4524 47.7737C26.4524 44.5957 29.0482 42 32.2262 42C35.4042 42 38 44.5953 38 47.7737V62.2263C38 65.4043 35.4047 68 32.2262 68C29.0482 68 26.4524 65.4043 26.4524 62.2263V47.7737Z" fill="#DE1C59"/>
<path d="M32.2262 23.5437C29.0482 23.5437 26.4524 20.9518 26.4524 17.7733C26.4524 14.5953 29.0482 12 32.2262 12C35.4042 12 38 14.5958 38 17.7738V23.5441L32.2262 23.5437ZM32.2262 26.4524C35.4042 26.4524 38 29.0482 38 32.2262C38 35.4042 35.4047 38 32.2262 38H17.7733C14.5953 38 12 35.4047 12 32.2262C12 29.0482 14.5958 26.4524 17.7738 26.4524H32.2262Z" fill="#35C5F0"/>
<path d="M56.4561 32.2262C56.4561 29.0482 59.0479 26.4524 62.2263 26.4524C65.4043 26.4524 68 29.0482 68 32.2262C68 35.4042 65.4043 38 62.2263 38H56.4561V32.2262ZM53.5474 32.2262C53.5474 35.4042 50.9517 38 47.7737 38C44.5957 38 42 35.4047 42 32.2262V17.7733C42 14.5953 44.5953 12 47.7737 12C50.9517 12 53.5474 14.5958 53.5474 17.7738V32.2262Z" fill="#2EB57D"/>
<path d="M47.7737 56.4561C50.9517 56.4561 53.5474 59.0479 53.5474 62.2263C53.5474 65.4043 50.9517 68 47.7737 68C44.5957 68 42 65.4043 42 62.2263V56.4561H47.7737ZM47.7737 53.5474C44.5957 53.5474 42 50.9517 42 47.7737C42 44.5957 44.5953 42 47.7737 42H62.2263C65.4043 42 68 44.5953 68 47.7737C68 50.9517 65.4043 53.5474 62.2263 53.5474H47.7737Z" fill="#EBB02E"/>
</svg>
