<svg width="45" height="45" viewBox="0 0 45 45" fill="none" xmlns="http://www.w3.org/2000/svg">
<path d="M41.1113 9.85342C39.668 7.73369 37.8941 5.89481 35.864 4.39543H40.4617V1.61193H29.1839V12.9542H31.9674V5.20033C38.2564 8.63415 42.2165 15.2139 42.2165 22.5C42.2165 33.3717 33.3717 42.2165 22.5 42.2165C11.6283 42.2165 2.78351 33.3717 2.78351 22.5C2.78351 11.6283 11.6283 2.78351 22.5 2.78351C22.9878 2.78351 23.4851 2.80206 23.978 2.83853L24.1836 0.0626289C23.6225 0.0210619 23.0561 0 22.5 0C16.49 0 10.8398 2.34046 6.59013 6.59004C2.34046 10.8398 0 16.49 0 22.5C0 28.51 2.34046 34.1602 6.59013 38.4099C10.8398 42.6595 16.49 45 22.5 45C28.51 45 34.1602 42.6595 38.41 38.4099C42.6595 34.1602 45 28.51 45 22.5C45 17.963 43.6553 13.5898 41.1113 9.85342Z" fill="#FBC417"/>
<path d="M21.1081 21.1081H7.88672V23.8916H23.8916V7.91016H21.1081V21.1081Z" fill="#FBC417"/>
</svg>
