<svg width="598" height="271" viewBox="0 0 598 271" fill="none" xmlns="http://www.w3.org/2000/svg">
<path d="M578.98 261H568.57" stroke="black" stroke-width="2.1628" stroke-miterlimit="10" stroke-linecap="round" stroke-linejoin="round"/>
<path d="M220.409 252H210" stroke="black" stroke-width="2.1628" stroke-miterlimit="10" stroke-linecap="round" stroke-linejoin="round"/>
<path d="M26.9798 229H16.5703" stroke="black" stroke-width="2.1628" stroke-miterlimit="10" stroke-linecap="round" stroke-linejoin="round"/>
<path d="M184.998 197.346H158.733V243.996H95.1101V197.346H0V149.542L99.1884 3H158.735V148.718H185V197.346H184.998ZM95.1101 148.718V120.696C95.1101 115.421 95.2984 108.309 95.681 99.3485C96.0595 90.3943 96.358 85.6946 96.5784 85.2554H94.7836C91.0858 93.7177 86.8973 101.632 82.222 108.993L55.7928 148.718H95.1101Z" fill="#FBC417"/>
<path d="M196.998 197.347H170.733V243.996H107.11V197.347H12V149.542L111.188 3H170.735V148.718H197L196.998 197.347ZM107.108 148.718V120.696C107.108 115.421 107.296 108.309 107.679 99.3485C108.058 90.3943 108.356 85.6946 108.576 85.2554H106.782C103.084 93.7177 98.8953 101.632 94.22 108.993L67.7909 148.718H107.108Z" stroke="black" stroke-width="3.2675" stroke-miterlimit="10"/>
<path d="M379 123.902C379 165.379 371.858 195.764 357.58 215.06C343.3 234.355 321.438 244 292.002 244C263.22 244 241.525 233.928 226.915 213.775C212.304 193.628 205 163.666 205 123.9C205 82.2098 212.14 51.6398 226.422 32.1819C240.7 12.728 262.562 3 292.002 3C320.673 3 342.339 13.1296 357.004 33.3849C371.668 53.6461 379 83.8144 379 123.902ZM269.755 123.902C269.755 150.414 271.456 168.639 274.863 178.58C278.266 188.52 283.98 193.492 292 193.492C300.127 193.492 305.865 188.361 309.218 178.098C312.568 167.836 314.243 149.772 314.243 123.902C314.243 97.9269 312.54 79.7251 309.137 69.3041C305.729 58.8812 300.016 53.6717 292 53.6717C283.98 53.6717 278.266 58.6981 274.863 68.743C271.456 78.7919 269.755 97.1768 269.755 123.902Z" fill="#8B44FF"/>
<path d="M391 122.902C391 164.379 383.858 194.764 369.58 214.06C355.3 233.355 333.438 243 304.002 243C275.22 243 253.525 232.927 238.915 212.775C224.304 192.628 217 162.666 217 122.9C217 81.2098 224.14 50.6398 238.42 31.1819C252.697 11.7279 274.56 2 304 2C332.671 2 354.337 12.1296 369.002 32.3849C383.67 52.6461 391 82.8163 391 122.902ZM281.757 122.902C281.757 149.414 283.458 167.639 286.865 177.58C290.268 187.52 295.982 192.492 304.002 192.492C312.129 192.492 317.867 187.361 321.22 177.097C324.57 166.836 326.245 148.772 326.245 122.9C326.245 96.9249 324.542 78.7231 321.139 68.3022C317.732 57.8792 312.018 52.6697 304.002 52.6697C295.982 52.6697 290.268 57.6961 286.865 67.741C283.458 77.7919 281.757 96.1787 281.757 122.902Z" stroke="black" stroke-width="3.2675" stroke-miterlimit="10"/>
<path d="M584 197.346H557.737V243.996H494.111V197.346H399V149.542L498.189 3H557.737V148.718H584V197.346ZM494.111 148.718V120.696C494.111 115.421 494.299 108.309 494.682 99.3485C495.061 90.3943 495.359 85.6946 495.579 85.2554H493.785C490.087 93.7177 485.896 101.632 481.223 108.993L454.795 148.718H494.111Z" fill="#3DC02A"/>
<path d="M595.998 196.347H569.733V242.996H506.11V196.347H411V148.542L510.188 2H569.735V147.718H596L595.998 196.347ZM506.11 147.718V119.696C506.11 114.421 506.298 107.309 506.681 98.3485C507.06 89.3943 507.358 84.6946 507.578 84.2554H505.784C502.086 92.7177 497.895 100.632 493.222 107.993L466.795 147.718H506.11Z" stroke="black" stroke-width="3.2675" stroke-miterlimit="10"/>
<path d="M432.146 61.0311C432.146 65.8178 428.264 69.6999 423.477 69.6999C418.691 69.6999 414.809 65.8178 414.809 61.0311C414.809 56.2423 418.691 52.3623 423.477 52.3623C428.264 52.3623 432.146 56.2443 432.146 61.0311Z" stroke="black" stroke-width="2.1628" stroke-miterlimit="10" stroke-linecap="round" stroke-linejoin="round"/>
<path d="M33.906 260.669C33.906 265.456 30.0239 269.338 25.2371 269.338C20.4504 269.338 16.5684 265.456 16.5684 260.669C16.5684 255.88 20.4504 252 25.2371 252C30.0239 252 33.906 255.882 33.906 260.669Z" stroke="black" stroke-width="2.1628" stroke-miterlimit="10" stroke-linecap="round" stroke-linejoin="round"/>
</svg>
