<svg width="42" height="42" viewBox="0 0 42 42" fill="none" xmlns="http://www.w3.org/2000/svg">
<path d="M40.3475 15.7543C40.3539 15.8699 40.3454 15.9875 40.3164 16.1043L37.7257 26.4669C37.5951 26.9889 37.1272 27.356 36.5893 27.3589L21.0454 27.4374C21.0433 27.4374 21.0415 27.4374 21.0394 27.4374H5.49533C4.95459 27.4374 4.4834 27.069 4.35277 26.5443L1.76212 16.1424C1.73228 16.0225 1.72365 15.9016 1.73119 15.783C0.728994 15.4673 0 14.5295 0 13.4243C0 12.0607 1.10927 10.9514 2.4729 10.9514C3.83652 10.9514 4.94579 12.0607 4.94579 13.4243C4.94579 14.1922 4.59394 14.8793 4.04299 15.3332L7.28649 18.6012C8.10624 19.4272 9.24377 19.9008 10.4075 19.9008C11.7836 19.9008 13.0955 19.2473 13.9217 18.1525L19.2522 11.0896C18.8044 10.6421 18.5271 10.0238 18.5271 9.34204C18.5271 7.97841 19.6364 6.86914 21 6.86914C22.3636 6.86914 23.4729 7.97841 23.4729 9.34204C23.4729 10.0034 23.2104 10.6036 22.786 11.0478C22.7874 11.0497 22.7891 11.0512 22.7905 11.0533L28.0824 18.1357C28.9082 19.241 30.2249 19.9009 31.6049 19.9009C32.7793 19.9009 33.8837 19.4435 34.7141 18.613L37.9781 15.3491C37.4155 14.8953 37.0542 14.2016 37.0542 13.4243C37.0542 12.0607 38.1635 10.9514 39.5271 10.9514C40.8907 10.9514 42 12.0607 42 13.4243C42 14.5 41.3084 15.4148 40.3475 15.7543ZM37.4729 31.1271C37.4729 30.4768 36.9457 29.9495 36.2954 29.9495H5.83557C5.18523 29.9495 4.658 30.4768 4.658 31.1271V33.9533C4.658 34.6036 5.18523 35.1308 5.83557 35.1308H36.2954C36.9457 35.1308 37.4729 34.6036 37.4729 33.9533V31.1271Z" fill="#8B44FF"/>
</svg>
