<svg width="43" height="42" viewBox="0 0 43 42" fill="none" xmlns="http://www.w3.org/2000/svg">
<path d="M41.7995 17.9436L34.5231 7.94358C34.2761 7.60405 33.8812 7.40332 33.4608 7.40332H8.63869C8.21826 7.40332 7.8235 7.60405 7.5764 7.94358L0.300097 17.9436C0.0104128 18.3422 -0.0312761 18.8691 0.19312 19.3077C0.244101 19.4078 0.310046 19.4963 0.382488 19.5782C0.384461 19.5807 0.381337 19.583 0.383721 19.5855L20.0712 41.5633C20.3201 41.8412 20.6762 42.0003 21.0498 42.0003C21.4234 42.0003 21.7794 41.8412 22.0284 41.5633L41.7159 19.5855C41.7183 19.5829 41.7151 19.581 41.717 19.5785C41.7895 19.4966 41.8554 19.4078 41.9066 19.3077C42.1309 18.8691 42.0892 18.3422 41.7995 17.9436ZM31.2396 10.0222L27.8124 16.2305L23.5008 10.0222H31.2396ZM25.4335 17.4037H16.6647L21.0491 11.0905L25.4335 17.4037ZM18.5975 10.0222L14.2861 16.2302L10.8596 10.0222H18.5975ZM8.48616 11.1512L11.937 17.4037H3.93698L8.48616 11.1512ZM4.29548 20.0224H13.194L17.9855 35.3051L4.29548 20.0224ZM21.0491 36.3044L15.9442 20.0224H26.1544L21.0491 36.3044ZM24.1123 35.3071L28.9047 20.0225H37.804L24.1123 35.3071ZM30.1616 17.4037L33.6133 11.1512L38.1626 17.4037H30.1616Z" fill="#3DC02A"/>
<path d="M21.0498 5.23753C21.7746 5.23753 22.3623 4.65125 22.3623 3.92815V1.30938C22.3623 0.586277 21.7746 0 21.0498 0C20.325 0 19.7373 0.586277 19.7373 1.30938V3.92815C19.7373 4.65125 20.325 5.23753 21.0498 5.23753Z" fill="#3DC02A"/>
<path d="M13.6747 5.52128C13.9317 5.87098 14.3303 6.05637 14.7341 6.05637C15.0036 6.05637 15.2753 5.97393 15.5093 5.80322C16.0937 5.37551 16.2203 4.55618 15.7916 3.97277L14.4618 2.16308C14.0337 1.57968 13.2121 1.45409 12.6273 1.88139C12.0428 2.30885 11.9163 3.1281 12.3449 3.7115L13.6747 5.52128Z" fill="#3DC02A"/>
<path d="M26.6615 5.80321C26.8954 5.97392 27.1671 6.05636 27.4366 6.05636C27.8404 6.05636 28.239 5.87097 28.496 5.52127L29.8258 3.71158C30.2545 3.12817 30.128 2.30884 29.5434 1.88146C28.959 1.45399 28.1374 1.57975 27.709 2.16315L26.3791 3.97276C25.9505 4.55617 26.077 5.3755 26.6615 5.80321Z" fill="#3DC02A"/>
</svg>
