<svg width="42" height="42" viewBox="0 0 42 42" fill="none" xmlns="http://www.w3.org/2000/svg">
<path d="M38.3086 9.84375H33.3013C34.0755 8.81475 34.5352 7.53629 34.5352 6.15234C34.5352 2.75994 31.7752 0 28.3828 0C26.3393 0 24.8325 0.732129 23.6407 2.30401C22.6436 3.61914 21.9145 5.45532 21 7.77533C20.0855 5.45524 19.3564 3.61914 18.3593 2.30401C17.1675 0.732129 15.6607 0 13.6172 0C10.2248 0 7.46484 2.75994 7.46484 6.15234C7.46484 7.53629 7.92446 8.81475 8.69868 9.84375H3.69141C1.65596 9.84375 0 11.4997 0 13.5352V15.9961C0 17.6002 1.02875 18.9679 2.46094 19.4759V38.3086C2.46094 40.344 4.1169 42 6.15234 42H35.8477C37.8831 42 39.5391 40.344 39.5391 38.3086V19.4759C40.9712 18.9679 42 17.6002 42 15.9961V13.5352C42 11.4997 40.344 9.84375 38.3086 9.84375ZM23.2586 8.75602C25.1436 3.97376 25.8603 2.46094 28.3828 2.46094C30.4183 2.46094 32.0742 4.1169 32.0742 6.15234C32.0742 8.18779 30.4183 9.84375 28.3828 9.84375H22.8282C22.979 9.46518 23.1228 9.10071 23.2586 8.75602ZM13.6172 2.46094C16.1397 2.46094 16.8564 3.97376 18.7414 8.75602C18.8772 9.10071 19.021 9.46518 19.1718 9.84375H13.6172C11.5817 9.84375 9.92578 8.18779 9.92578 6.15234C9.92578 4.1169 11.5817 2.46094 13.6172 2.46094ZM16.0781 39.5391H6.15234C5.47386 39.5391 4.92188 38.9871 4.92188 38.3086V19.6875H16.0781V39.5391ZM16.0781 17.2266H3.69141C3.01293 17.2266 2.46094 16.6746 2.46094 15.9961V13.5352C2.46094 12.8567 3.01293 12.3047 3.69141 12.3047H16.0781V17.2266ZM23.4609 39.5391H18.5391V12.3047C18.7969 12.3047 22.0467 12.3047 23.4609 12.3047V39.5391ZM37.0781 38.3086C37.0781 38.9871 36.5261 39.5391 35.8477 39.5391H25.9219V19.6875H37.0781V38.3086ZM39.5391 15.9961C39.5391 16.6746 38.9871 17.2266 38.3086 17.2266H25.9219V12.3047H38.3086C38.9871 12.3047 39.5391 12.8567 39.5391 13.5352V15.9961Z" fill="#27C8E8"/>
</svg>
