<svg width="43" height="42" viewBox="0 0 43 42" fill="none" xmlns="http://www.w3.org/2000/svg">
<path d="M1.20104 14.2793L20.4552 25.5886C20.7372 25.7556 21.0653 25.8444 21.4004 25.8444C21.7355 25.8444 22.0636 25.7556 22.3456 25.5886L41.5997 14.2793C41.8454 14.1328 42.0474 13.9319 42.1873 13.6948C42.3271 13.4578 42.4004 13.1921 42.4004 12.9222C42.4004 12.6523 42.3271 12.3866 42.1873 12.1496C42.0474 11.9125 41.8454 11.7115 41.5997 11.5651L22.3456 0.255808C22.0636 0.0887851 21.7355 0 21.4004 0C21.0653 0 20.7372 0.0887851 20.4552 0.255808L1.20104 11.5651C0.955376 11.7115 0.75339 11.9125 0.613529 12.1496C0.473668 12.3866 0.400391 12.6523 0.400391 12.9222C0.400391 13.1921 0.473668 13.4578 0.613529 13.6948C0.75339 13.9319 0.955376 14.1328 1.20104 14.2793Z" fill="#FBC417"/>
<path d="M39.7092 19.6429L21.4003 30.3867L3.09131 19.6429C2.702 19.438 2.24234 19.3786 1.80704 19.4772C1.37175 19.5757 0.994001 19.8246 0.751636 20.1726C0.509271 20.5206 0.420762 20.9411 0.504347 21.3476C0.587932 21.754 0.837242 22.1154 1.2009 22.3572L20.455 33.6664C20.7371 33.8335 21.0652 33.9222 21.4003 33.9222C21.7354 33.9222 22.0634 33.8335 22.3455 33.6664L41.5996 22.3572C41.9633 22.1154 42.2126 21.754 42.2962 21.3476C42.3797 20.9411 42.2912 20.5206 42.0489 20.1726C41.8065 19.8246 41.4288 19.5757 40.9935 19.4772C40.5582 19.3786 40.0985 19.438 39.7092 19.6429Z" fill="#FBC417"/>
<path d="M39.7092 27.7211L21.4003 38.4649L3.09131 27.7211C2.702 27.5161 2.24234 27.4568 1.80704 27.5553C1.37175 27.6539 0.994001 27.9028 0.751636 28.2507C0.509271 28.5987 0.420762 29.0193 0.504347 29.4257C0.587932 29.8321 0.837242 30.1935 1.2009 30.4353L20.455 41.7446C20.7371 41.9116 21.0652 42.0004 21.4003 42.0004C21.7354 42.0004 22.0634 41.9116 22.3455 41.7446L41.5996 30.4353C41.9633 30.1935 42.2126 29.8321 42.2962 29.4257C42.3797 29.0193 42.2912 28.5987 42.0489 28.2507C41.8065 27.9028 41.4288 27.6539 40.9935 27.5553C40.5582 27.4568 40.0985 27.5161 39.7092 27.7211Z" fill="#FBC417"/>
</svg>
