<svg width="51" height="37" viewBox="0 0 51 37" fill="none" xmlns="http://www.w3.org/2000/svg">
<path fill-rule="evenodd" clip-rule="evenodd" d="M23.4687 23.5338C24.0786 26.3969 26.0052 28.4386 28.4545 29.6869C31.1987 31.0854 34.595 31.4709 37.3924 30.9511C38.3555 30.725 39.2829 30.4028 40.1801 29.9847C41.4743 29.3818 42.6982 28.6075 43.8928 27.7455C44.0109 27.6706 44.0474 27.5136 43.9745 27.3951C43.9016 27.2767 43.7465 27.2412 43.6279 27.3157C42.5913 27.8863 41.5414 28.3902 40.463 28.7967C39.393 29.2009 38.3027 29.494 37.1729 29.6307C34.6429 30.064 31.5902 29.6651 29.1252 28.3816C27.0991 27.3267 25.4696 25.658 24.9359 23.3004C25.5544 23.1718 26.1604 22.9994 26.7415 22.7639C27.867 22.3083 28.9035 21.623 29.777 20.5797C30.3901 19.848 31.0552 18.6652 31.1924 17.5886C31.3143 16.6318 31.0579 15.7526 30.2161 15.1728C28.538 14.0171 26.9099 14.6069 25.6279 16.0225C24.1829 17.6181 23.2386 20.3148 23.2804 22.0552C22.6692 22.1257 22.0538 22.1671 21.4477 22.2035C18.9415 22.3537 16.4428 21.5519 14.3734 19.9852C12.4534 18.5322 10.9027 16.422 10.0479 13.7983C9.32809 11.6963 9.37916 9.45908 9.73007 7.43826C9.97411 6.03233 10.384 4.74129 10.8152 3.64192C11.2072 2.64243 11.5772 1.80879 12.0038 1.24363C12.0248 1.22237 12.0247 1.18815 12.0038 1.16715C11.9828 1.14614 11.949 1.14661 11.928 1.16787C11.3467 1.62493 10.6799 2.32198 10.0885 3.27718C9.42475 4.34933 8.87879 5.7105 8.51705 7.19189C7.9765 9.40621 7.94048 11.9063 8.66646 14.2664C9.6151 17.1938 11.3465 19.5458 13.4847 21.17C15.833 22.9537 18.673 23.859 21.5203 23.6932C22.1653 23.6559 22.8192 23.6099 23.4687 23.5338ZM24.7611 21.8129C25.2526 21.7032 25.7337 21.5607 26.1976 21.372C27.1022 21.0041 27.9376 20.4553 28.639 19.615C29.0223 19.1555 29.4425 18.4659 29.6306 17.7798C29.7728 17.2625 29.8107 16.73 29.3632 16.4213C28.3907 15.7491 27.4687 16.2107 26.7238 17.0312C25.5786 18.2917 24.7901 20.3833 24.7611 21.8129Z" fill="#FA4900"/>
<path fill-rule="evenodd" clip-rule="evenodd" d="M43.4253 27.3021C43.1196 27.6818 42.8092 28.0592 42.5037 28.4423C42.1455 28.8923 41.7862 29.3416 41.4459 29.8067C40.5768 30.9962 39.7928 32.2124 38.9864 33.4225C38.8986 33.5269 38.9113 33.6827 39.0137 33.77C39.1162 33.8575 39.2709 33.8436 39.3587 33.7392C40.2442 32.8999 41.1536 32.1024 42.0425 31.2436C42.4203 30.8781 42.7928 30.5112 43.146 30.1218C43.9367 29.2503 44.6506 28.3144 45.3549 27.386C45.4392 27.2714 45.5592 27.0634 45.6028 26.8754C45.652 26.6649 45.6387 26.4645 45.5719 26.298C45.5091 26.1407 45.3883 25.943 45.1086 25.8289C44.9827 25.7776 44.7029 25.7208 44.3106 25.7265C43.0176 25.7457 39.8643 26.1885 39.2112 26.2655L37.9397 26.5028C37.8672 26.5218 37.7605 26.5348 37.6614 26.5978C37.5286 26.6816 37.3812 26.7766 37.3232 26.877C37.2792 26.9534 37.3876 26.9946 37.3289 26.9828C37.2839 26.974 37.343 27.0564 37.3524 27.026C37.3874 26.9119 37.4127 27.1103 37.4545 27.0676C37.5576 26.9614 37.457 27.1846 37.5687 27.172C37.6093 27.1677 37.5466 27.2154 37.588 27.2205C37.6464 27.2277 37.5329 27.2681 37.5936 27.3006C37.6307 27.3203 37.5343 27.3222 37.575 27.3591C37.6054 27.3867 37.4921 27.339 37.5314 27.3913C37.5673 27.4392 37.4863 27.3646 37.4863 27.3646C37.4863 27.3646 37.5027 27.4175 37.4354 27.2926C37.4574 27.2723 37.4587 27.2381 37.4391 27.2162C37.4191 27.1941 37.3851 27.1929 37.3634 27.2133C37.0665 27.0198 37.3207 27.2038 37.1867 27.1853C37.1393 27.1788 37.1949 27.2246 37.1594 27.231C36.9838 27.2634 37.2437 27.3059 37.1724 27.4093C37.1437 27.4509 37.2269 27.4122 37.2095 27.4615C37.1791 27.5482 37.2954 27.4064 37.3228 27.5324C37.3371 27.598 37.3657 27.4619 37.4416 27.5694C37.4976 27.6488 37.4235 27.6058 37.5914 27.669C37.7109 27.7138 37.9612 27.639 38.0743 27.6552L39.3253 27.6038C39.8426 27.5658 41.9732 27.3635 43.4253 27.3021Z" fill="#FA4900"/>
</svg>
