<svg width="51" height="37" viewBox="0 0 51 37" fill="none" xmlns="http://www.w3.org/2000/svg">
<path fill-rule="evenodd" clip-rule="evenodd" d="M27.5302 23.5338C26.9204 26.3969 24.9937 28.4386 22.5445 29.687C19.8003 31.0855 16.404 31.4709 13.6065 30.9511C12.6434 30.7251 11.7161 30.4028 10.8189 29.9847C9.52461 29.3818 8.30072 28.6075 7.10619 27.7455C6.9881 27.6707 6.95152 27.5136 7.02445 27.3952C7.09739 27.2767 7.25242 27.2413 7.37107 27.3158C8.40763 27.8863 9.45751 28.3902 10.536 28.7968C11.6059 29.2009 12.6962 29.4941 13.826 29.6307C16.3561 30.064 19.4088 29.6651 21.8738 28.3816C23.8998 27.3268 25.5294 25.658 26.0631 23.3004C25.4445 23.1718 24.8386 22.9994 24.2575 22.7639C23.132 22.3083 22.0955 21.6231 21.2219 20.5797C20.6089 19.848 19.9438 18.6652 19.8066 17.5887C19.6847 16.6318 19.9411 15.7527 20.7829 15.1728C22.461 14.0171 24.0891 14.6069 25.3711 16.0225C26.8161 17.6182 27.7604 20.3148 27.7185 22.0552C28.3298 22.1258 28.9451 22.1671 29.5513 22.2035C32.0575 22.3537 34.5562 21.552 36.6256 19.9852C38.5456 18.5322 40.0963 16.422 40.9511 13.7983C41.6709 11.6963 41.6199 9.45908 41.269 7.43826C41.0249 6.03233 40.6151 4.7413 40.1838 3.64192C39.7918 2.64243 39.4218 1.80879 38.9952 1.24363C38.9742 1.22237 38.9743 1.18815 38.9953 1.16715C39.0162 1.14614 39.05 1.14661 39.0711 1.16787C39.6524 1.62493 40.3192 2.32198 40.9105 3.27718C41.5743 4.34933 42.1202 5.7105 42.482 7.19189C43.0225 9.40621 43.0585 11.9063 42.3326 14.2664C41.3839 17.1938 39.6525 19.5458 37.5143 21.17C35.166 22.9537 32.326 23.859 29.4787 23.6932C28.8337 23.6559 28.1798 23.6099 27.5302 23.5338ZM26.2379 21.8129C25.7464 21.7032 25.2652 21.5607 24.8014 21.372C23.8968 21.0041 23.0614 20.4553 22.36 19.6151C21.9767 19.1556 21.5565 18.4659 21.3684 17.7798C21.2262 17.2625 21.1883 16.73 21.6358 16.4213C22.6083 15.7492 23.5303 16.2107 24.2752 17.0312C25.4204 18.2917 26.2089 20.3833 26.2379 21.8129Z" fill="#FA4900"/>
<path fill-rule="evenodd" clip-rule="evenodd" d="M7.57372 27.3021C7.87944 27.6818 8.18984 28.0592 8.49528 28.4423C8.85348 28.8923 9.21281 29.3416 9.55308 29.8067C10.4222 30.9962 11.2062 32.2124 12.0126 33.4225C12.1005 33.5269 12.0877 33.6827 11.9854 33.77C11.8828 33.8575 11.7281 33.8436 11.6403 33.7392C10.7548 32.8999 9.84541 32.1024 8.9565 31.2436C8.57875 30.8781 8.20622 30.5112 7.85304 30.1218C7.06235 29.2504 6.34841 28.3144 5.64409 27.386C5.55981 27.2714 5.4398 27.0635 5.39618 26.8754C5.34705 26.6649 5.36031 26.4645 5.42714 26.298C5.48993 26.1407 5.61073 25.9431 5.89044 25.8289C6.01632 25.7776 6.29613 25.7208 6.68843 25.7265C7.98142 25.7457 11.1348 26.1885 11.7878 26.2655L13.0594 26.5028C13.1318 26.5218 13.2385 26.5348 13.3376 26.5978C13.4704 26.6816 13.6179 26.7766 13.6758 26.877C13.7198 26.9534 13.6114 26.9946 13.6702 26.9828C13.7152 26.974 13.656 27.0564 13.6466 27.026C13.6117 26.9119 13.5863 27.1103 13.5446 27.0676C13.4414 26.9614 13.542 27.1846 13.4303 27.172C13.3897 27.1677 13.4525 27.2154 13.411 27.2205C13.3526 27.2277 13.4661 27.2681 13.4055 27.3006C13.3683 27.3203 13.4648 27.3222 13.424 27.3591C13.3937 27.3867 13.5069 27.339 13.4676 27.3913C13.4317 27.4392 13.5127 27.3646 13.5127 27.3646C13.5127 27.3646 13.4964 27.4175 13.5636 27.2926C13.5417 27.2723 13.5403 27.2381 13.56 27.2162C13.5799 27.1941 13.6139 27.1929 13.6356 27.2133C13.9325 27.0198 13.6783 27.2038 13.8123 27.1853C13.8597 27.1788 13.8042 27.2246 13.8396 27.231C14.0152 27.2634 13.7553 27.3059 13.8267 27.4093C13.8554 27.4509 13.7722 27.4122 13.7895 27.4615C13.8199 27.5482 13.7036 27.4064 13.6762 27.5324C13.6619 27.598 13.6333 27.4619 13.5575 27.5694C13.5014 27.6488 13.5756 27.6058 13.4076 27.669C13.2881 27.7138 13.0378 27.639 12.9247 27.6552L11.6737 27.6038C11.1564 27.5658 9.02582 27.3635 7.57372 27.3021Z" fill="#FA4900"/>
</svg>
