<svg width="151" height="48" viewBox="0 0 151 48" fill="none" xmlns="http://www.w3.org/2000/svg">
<path d="M41.5967 17.9161C37.5294 17.9161 34.3514 21.0037 34.3514 25.137C34.3514 29.2704 37.4491 32.3315 41.5967 32.3315C45.7443 32.3315 48.8958 29.2175 48.8958 25.1106C48.8958 21.0301 45.7981 17.9161 41.5967 17.9161ZM41.6241 29.3527C39.3079 29.3527 37.6107 27.5538 37.6107 25.1381C37.6107 22.6948 39.2805 20.897 41.5967 20.897C43.9403 20.897 45.6365 22.7223 45.6365 25.1381C45.6365 27.5538 43.9403 29.3527 41.6241 29.3527ZM49.7841 21.0576H51.8044V32.0642H55.0363V18.1845H49.7841V21.0576ZM26.2178 20.896C27.9151 20.896 29.2617 21.9428 29.7729 23.4997H33.1938C32.5739 20.1713 29.8268 17.9161 26.2453 17.9161C22.178 17.9161 19 21.0037 19 25.1381C19 29.2724 22.0977 32.3325 26.2453 32.3325C29.7465 32.3325 32.5474 30.0773 33.1674 26.7215H29.7729C29.2881 28.2785 27.9415 29.3527 26.2443 29.3527C23.9007 29.3527 22.2583 27.5538 22.2583 25.1381C22.2593 22.6948 23.8753 20.896 26.2178 20.896ZM111.192 23.7955L108.822 23.4469C107.691 23.2863 106.883 22.9103 106.883 22.0241C106.883 21.0576 107.933 20.5748 109.36 20.5748C110.923 20.5748 111.919 21.2456 112.135 22.3462H115.259C114.908 19.5544 112.754 17.9171 109.442 17.9171C106.021 17.9171 103.758 19.6622 103.758 22.1318C103.758 24.4937 105.24 25.8637 108.229 26.2926L110.599 26.6412C111.758 26.8017 112.404 27.2591 112.404 28.1179C112.404 29.2186 111.273 29.6749 109.711 29.6749C107.798 29.6749 106.721 28.8964 106.559 27.7154H103.381C103.678 30.4269 105.805 32.3325 109.683 32.3325C113.212 32.3325 115.555 30.7217 115.555 27.9563C115.555 25.4866 113.858 24.198 111.192 23.7955ZM53.4203 12.4667C52.2353 12.4667 51.3463 13.3255 51.3463 14.5064C51.3463 15.6874 52.2344 16.5461 53.4203 16.5461C54.6053 16.5461 55.4947 15.6874 55.4947 14.5064C55.4947 13.3255 54.6053 12.4667 53.4203 12.4667ZM100.85 22.9367C100.85 19.9305 99.0184 17.9171 95.14 17.9171C91.4772 17.9171 89.4303 19.7699 89.0259 22.6156H92.2313C92.3928 21.5149 93.2547 20.6022 95.0863 20.6022C96.7297 20.6022 97.5375 21.3269 97.5375 22.2131C97.5375 23.3676 96.0556 23.6624 94.2244 23.8504C91.7466 24.1187 88.6763 24.9775 88.6763 28.1992C88.6763 30.6963 90.535 32.3061 93.4978 32.3061C95.8138 32.3061 97.2681 31.3396 97.996 29.809C98.1038 31.178 99.1272 32.0642 100.555 32.0642H102.44V29.1921H100.851V22.9367H100.85ZM97.6716 26.4267C97.6716 28.2795 96.0556 29.6484 94.0891 29.6484C92.8769 29.6484 91.8534 29.1382 91.8534 28.065C91.8534 26.6961 93.4966 26.32 95.005 26.1595C96.4594 26.0253 97.2672 25.7031 97.6716 25.0852V26.4267ZM80.5153 17.9161C78.7103 17.9161 77.2022 18.6682 76.125 19.9295V12.3325H72.8931V32.0642H76.0709V30.2389C77.1481 31.554 78.6841 32.3325 80.5153 32.3325C84.3934 32.3325 87.3297 29.2724 87.3297 25.1381C87.3297 21.0037 84.3397 17.9161 80.5153 17.9161ZM80.0306 29.3527C77.7144 29.3527 76.0172 27.5538 76.0172 25.1381C76.0172 22.7223 77.741 20.897 80.0569 20.897C82.4006 20.897 84.0428 22.6959 84.0428 25.1381C84.0428 27.5538 82.3466 29.3527 80.0306 29.3527ZM65.1628 17.9161C63.0622 17.9161 61.6881 18.7749 60.8803 19.9833V18.1845H57.6747V32.0632H60.9066V24.5201C60.9066 22.3991 62.2531 20.896 64.2463 20.896C66.105 20.896 67.2625 22.2111 67.2625 24.1177V32.0642H70.4944V23.8768C70.4956 20.3858 68.6916 17.9161 65.1628 17.9161ZM130.961 24.6817C130.961 20.709 128.052 17.9171 124.147 17.9171C119.999 17.9171 116.955 21.0311 116.955 25.1381C116.955 29.4604 120.214 32.3325 124.201 32.3325C127.568 32.3325 130.207 30.3456 130.88 27.5274H127.513C127.028 28.7622 125.843 29.4604 124.253 29.4604C122.179 29.4604 120.617 28.1717 120.267 25.9166H130.96V24.6817H130.961ZM120.456 23.6075C120.969 21.6745 122.423 20.7354 124.093 20.7354C125.924 20.7354 127.325 21.7822 127.648 23.6075H120.456Z" fill="black"/>
</svg>
