<svg width="171" height="48" viewBox="0 0 171 48" fill="none" xmlns="http://www.w3.org/2000/svg">
<path d="M55.376 15.6778H61.7278C65.7772 15.6778 69.1224 18.0208 69.1224 23.3704V24.4945C69.1224 29.8847 65.9939 32.3089 61.8496 32.3089H55.376V15.6778ZM58.9243 18.698V29.2752H61.6465C63.9489 29.2752 65.4928 27.7719 65.4928 24.4268V23.5465C65.4928 20.2013 63.8676 18.698 61.5246 18.698H58.9243ZM71.0049 18.8605H73.849L74.3094 21.989C74.8512 19.8627 76.2326 18.7251 78.7381 18.7251H79.6184V22.314H78.1557C75.271 22.314 74.5668 23.3162 74.5668 26.1603V32.3496H71.0591V18.8605H71.0049ZM80.3227 25.8759V25.4967C80.3227 20.9868 83.2074 18.5219 87.1349 18.5219C91.1437 18.5219 93.9472 20.9868 93.9472 25.4967V25.8759C93.9472 30.3045 91.225 32.6881 87.1349 32.6881C82.7875 32.6475 80.3227 30.3181 80.3227 25.8759ZM90.3582 25.8353V25.4967C90.3582 22.9912 89.0987 21.4879 87.0943 21.4879C85.1305 21.4879 83.8304 22.8693 83.8304 25.4967V25.8353C83.8304 28.2595 85.0899 29.6409 87.0943 29.6409C89.0987 29.6003 90.3582 28.2595 90.3582 25.8353ZM95.789 18.8605H98.7144L99.053 21.4066C99.7572 19.7002 101.261 18.5219 103.482 18.5219C106.908 18.5219 109.17 20.9868 109.17 25.5509V25.9301C109.17 30.3587 106.664 32.7017 103.482 32.7017C101.355 32.7017 99.8927 31.7401 99.1749 30.1962V37.0084H95.7484L95.789 18.8605ZM105.608 25.8353V25.5373C105.608 22.8557 104.226 21.5285 102.385 21.5285C100.421 21.5285 99.1207 23.0318 99.1207 25.5373V25.7946C99.1207 28.1782 100.38 29.6815 102.344 29.6815C104.362 29.6409 105.608 28.3543 105.608 25.8353ZM114.357 29.8576L114.059 32.3225H111.052V14.3506H114.479V21.2441C115.237 19.4835 116.74 18.5219 118.867 18.5219C122.09 18.5625 124.474 20.7836 124.474 25.2529V25.6727C124.474 30.142 122.212 32.7017 118.785 32.7017C116.524 32.6475 115.061 31.6047 114.357 29.8576ZM120.871 25.6727V25.3342C120.871 22.8693 119.53 21.4879 117.648 21.4879C115.725 21.4879 114.384 23.0318 114.384 25.3748V25.6727C114.384 28.1782 115.684 29.6409 117.607 29.6409C119.666 29.6409 120.871 28.3543 120.871 25.6727ZM125.977 25.8759V25.4967C125.977 20.9868 128.862 18.5219 132.789 18.5219C136.798 18.5219 139.601 20.9868 139.601 25.4967V25.8759C139.601 30.3045 136.839 32.6881 132.789 32.6881C128.442 32.6475 125.977 30.3181 125.977 25.8759ZM136.04 25.8353V25.4967C136.04 22.9912 134.78 21.4879 132.776 21.4879C130.812 21.4879 129.512 22.8693 129.512 25.4967V25.8353C129.512 28.2595 130.771 29.6409 132.776 29.6409C134.794 29.6003 136.04 28.2595 136.04 25.8353ZM144.193 25.3342L139.466 18.8605H143.515L146.238 22.9099L149.001 18.8605H153.009L148.215 25.2935L153.267 32.3225H149.298L146.211 27.8532L143.204 32.3225H139.06L144.193 25.3342Z" fill="black"/>
<path d="M33.5432 15.6785L25.6881 20.6895L33.5432 25.7005L25.6881 30.7115L17.833 25.6734L25.6881 20.6624L17.833 15.6785L25.6881 10.6675L33.5432 15.6785ZM25.6475 32.3231L33.5026 27.3121L41.3576 32.3231L33.5026 37.3341L25.6475 32.3231ZM33.5432 25.6734L41.3983 20.6624L33.5432 15.6785L41.3576 10.6675L49.2127 15.6785L41.3576 20.6895L49.2127 25.7005L41.3576 30.7115L33.5432 25.6734Z" fill="black"/>
</svg>
