<svg width="144" height="48" viewBox="0 0 144 48" fill="none" xmlns="http://www.w3.org/2000/svg">
<path d="M53.2699 31.0207L54.4934 28.1612C55.8329 29.1532 57.5802 29.6783 59.3278 29.6783C60.6093 29.6783 61.4246 29.1825 61.4246 28.4239C61.3954 26.3229 53.7069 27.9569 53.6484 22.6748C53.6191 19.9902 56.0075 17.9185 59.3863 17.9185C61.3954 17.9185 63.4053 18.4147 64.8322 19.5529L63.689 22.4734C62.3761 21.6293 60.7546 21.0407 59.2113 21.0407C58.1628 21.0407 57.4636 21.5365 57.4636 22.179C57.4929 24.2507 65.2403 23.1125 65.3276 28.1612C65.3276 30.9042 62.9973 32.8302 59.677 32.8302C57.231 32.8302 54.9884 32.2467 53.2695 31.0207H53.2699ZM101.985 27.1257C101.676 27.6744 101.227 28.1311 100.683 28.4489C100.14 28.7668 99.5216 28.9343 98.892 28.9344C96.9296 28.9344 95.339 27.3404 95.339 25.3743C95.339 23.4082 96.9296 21.8143 98.892 21.8143C99.5216 21.8144 100.14 21.9819 100.683 22.2997C101.227 22.6175 101.676 23.0742 101.985 23.6229L105.386 21.7349C104.112 19.4581 101.682 17.9185 98.892 17.9185C94.7822 17.9185 91.4507 21.2563 91.4507 25.3743C91.4507 29.492 94.7822 32.8302 98.892 32.8302C101.682 32.8302 104.112 31.2906 105.386 29.0137L101.985 27.1257ZM67.5347 32.5382H71.7868V11.7119H67.5351L67.5347 32.5382ZM107.534 11.7119V32.5382H111.786V26.2987L116.824 32.5382H122.26L115.852 25.1258L121.793 18.2092H116.591L111.786 23.9596V11.7119H107.534ZM84.887 18.21V19.9029C84.1882 18.7355 82.4698 17.9185 80.6641 17.9185C76.9362 17.9185 73.9948 21.2162 73.9948 25.3597C73.9948 29.5033 76.9362 32.8302 80.6641 32.8302C82.4698 32.8302 84.1882 32.0132 84.887 30.8457V32.5382H89.1392V18.21H84.887ZM84.887 27.1546C84.2755 28.1758 82.994 28.9339 81.5672 28.9339C79.6044 28.9339 78.0138 27.3404 78.0138 25.3743C78.0138 23.4082 79.6044 21.8143 81.5672 21.8143C82.994 21.8143 84.2755 22.6021 84.887 23.6522V27.1546Z" fill="black"/>
<path d="M30.8154 11.2524C29.4374 11.2524 28.3205 12.3719 28.3205 13.7524C28.3201 14.0803 28.3844 14.4051 28.5096 14.7083C28.6348 15.0114 28.8185 15.2869 29.0502 15.519C29.2818 15.7512 29.557 15.9354 29.8598 16.0612C30.1627 16.187 30.4874 16.2519 30.8154 16.2523H33.3107V13.7524C33.3112 13.09 33.0487 12.4545 32.5807 11.9857C32.1128 11.5168 31.4778 11.2531 30.8154 11.2524ZM30.8154 17.9189H24.1619C22.7839 17.9189 21.667 19.0383 21.667 20.4192C21.667 21.7997 22.7839 22.9191 24.1619 22.9191H30.8158C32.1934 22.9191 33.3107 21.7997 33.3107 20.4192C33.3107 19.0383 32.1934 17.9189 30.8154 17.9189Z" fill="black"/>
<path d="M46.6183 20.4192C46.6183 19.0383 45.501 17.9189 44.123 17.9189C42.745 17.9189 41.6281 19.0383 41.6281 20.4192V22.9191H44.123C44.7854 22.9184 45.4204 22.6547 45.8883 22.1859C46.3563 21.7171 46.6189 21.0816 46.6183 20.4192ZM39.9648 20.4192V13.7524C39.9654 13.09 39.7028 12.4545 39.2349 11.9857C38.7669 11.5168 38.1319 11.2531 37.4695 11.2524C36.0915 11.2524 34.9746 12.3719 34.9746 13.7524V20.4188C34.9746 21.8001 36.0915 22.9195 37.4695 22.9195C38.1319 22.9189 38.7669 22.6551 39.2349 22.1863C39.7028 21.7175 39.9654 21.082 39.9648 20.4196" fill="black"/>
<path d="M37.4695 36.2536C38.1319 36.2529 38.7669 35.9892 39.2349 35.5204C39.7028 35.0515 39.9654 34.4161 39.9648 33.7537C39.9654 33.0913 39.7028 32.4558 39.2349 31.987C38.7669 31.5182 38.1319 31.2544 37.4695 31.2538H34.9746V33.7537C34.9746 35.1342 36.0915 36.2536 37.4695 36.2536ZM37.4695 29.5872H44.1234C45.501 29.5872 46.6183 28.4677 46.6183 27.0868C46.6189 26.4244 46.3563 25.7889 45.8883 25.3201C45.4204 24.8513 44.7854 24.5876 44.123 24.5869H37.4695C36.0915 24.5869 34.9746 25.7063 34.9746 27.0868C34.9743 27.4148 35.0386 27.7396 35.1638 28.0427C35.289 28.3459 35.4726 28.6214 35.7043 28.8535C35.936 29.0856 36.2111 29.2699 36.514 29.3957C36.8169 29.5215 37.1415 29.5864 37.4695 29.5867" fill="black"/>
<path d="M21.667 27.0868C21.6667 27.4148 21.7309 27.7396 21.8561 28.0427C21.9813 28.3459 22.165 28.6214 22.3967 28.8535C22.6284 29.0856 22.9035 29.2699 23.2064 29.3957C23.5092 29.5215 23.8339 29.5864 24.1619 29.5867C24.8243 29.5861 25.4593 29.3223 25.9272 28.8535C26.3952 28.3847 26.6578 27.7492 26.6572 27.0868V24.5869H24.1619C22.7839 24.5869 21.667 25.7063 21.667 27.0868ZM28.3205 27.0868V33.7533C28.3205 35.1342 29.4374 36.2536 30.8154 36.2536C31.4778 36.2529 32.1128 35.9892 32.5807 35.5204C33.0487 35.0515 33.3112 34.4161 33.3107 33.7537V27.0868C33.311 26.7588 33.2467 26.434 33.1215 26.1308C32.9963 25.8277 32.8126 25.5522 32.5808 25.32C32.3491 25.0879 32.0739 24.9036 31.771 24.7779C31.4681 24.6521 31.1434 24.5872 30.8154 24.5869C29.4374 24.5869 28.3205 25.7063 28.3205 27.0868Z" fill="black"/>
</svg>
