<svg width="143" height="48" viewBox="0 0 143 48" fill="none" xmlns="http://www.w3.org/2000/svg">
<path d="M30.3109 6.56689C20.6459 6.56689 12.8105 14.402 12.8105 24.067C12.8105 33.7324 20.6459 41.5669 30.3109 41.5669C39.9769 41.5669 47.8114 33.7324 47.8114 24.067C47.8114 14.4027 39.9769 6.56773 30.3107 6.56773L30.3109 6.56689ZM38.3364 31.8071C38.0229 32.3211 37.35 32.4842 36.8359 32.1686C32.727 29.6588 27.5545 29.0904 21.4628 30.4822C20.8758 30.6159 20.2907 30.2481 20.1569 29.6609C20.0225 29.0737 20.3889 28.4885 20.9773 28.3548C27.6437 26.8318 33.3619 27.4875 37.9749 30.3066C38.4889 30.6222 38.6519 31.293 38.3364 31.8071ZM40.4784 27.042C40.0834 27.684 39.2434 27.8867 38.6018 27.4917C33.8977 24.6003 26.7271 23.7629 21.1631 25.4519C20.4415 25.6698 19.6794 25.2632 19.4604 24.5428C19.2431 23.8212 19.6499 23.0606 20.3703 22.8411C26.7259 20.9127 34.6271 21.8468 40.0291 25.1664C40.6707 25.5614 40.8734 26.4015 40.4784 27.0422V27.042ZM40.6623 22.0801C35.022 18.7299 25.7163 18.4219 20.3312 20.0563C19.4664 20.3186 18.552 19.8304 18.2899 18.9657C18.0279 18.1005 18.5156 17.1867 19.381 16.9238C25.5627 15.0472 35.8391 15.4097 42.3329 19.2647C43.1123 19.7263 43.3673 20.7309 42.9055 21.5077C42.4457 22.2855 41.4384 22.5419 40.6631 22.0801H40.6623ZM60.4231 22.722C57.4013 22.0015 56.8642 21.4958 56.8642 20.4331C56.8642 19.4292 57.8088 18.7536 59.2152 18.7536C60.5778 18.7536 61.9277 19.2666 63.3446 20.3228C63.3864 20.3547 63.4407 20.3675 63.493 20.3591C63.5473 20.3512 63.5933 20.3221 63.6246 20.2785L65.1 18.1987C65.1606 18.1131 65.1439 17.995 65.0624 17.9296C63.3759 16.5769 61.4784 15.9192 59.2591 15.9192C55.997 15.9192 53.7171 17.8771 53.7171 20.6784C53.7171 23.6825 55.6835 24.7462 59.0815 25.5672C61.9716 26.2332 62.4606 26.7912 62.4606 27.7885C62.4606 28.8939 61.4743 29.5815 59.886 29.5815C58.1223 29.5815 56.6824 28.9859 55.0733 27.5941C55.0336 27.5586 54.9793 27.5439 54.9291 27.546C54.8748 27.5502 54.8267 27.5753 54.7933 27.615L53.1382 29.5836C53.0692 29.6671 53.0776 29.7884 53.157 29.8594C55.0294 31.5312 57.3324 32.4131 59.8192 32.4131C63.3342 32.4131 65.6057 30.4926 65.6057 27.5189C65.612 25.0097 64.1095 23.62 60.4294 22.7247L60.4231 22.722ZM73.5594 19.742C72.0359 19.742 70.7863 20.3422 69.7539 21.572V20.1878C69.7539 20.0785 69.6661 19.9895 69.5575 19.9895H66.8512C66.7426 19.9895 66.6548 20.0785 66.6548 20.1878V35.5686C66.6548 35.6773 66.7426 35.7672 66.8512 35.7672H69.5575C69.6661 35.7672 69.7539 35.6773 69.7539 35.5686V30.7141C70.7863 31.8698 72.0359 32.4361 73.5594 32.4361C76.391 32.4361 79.2582 30.2565 79.2582 26.0897C79.2623 21.9221 76.3952 19.7418 73.5615 19.7418L73.5594 19.742ZM76.111 26.0897C76.111 28.2106 74.8049 29.6922 72.9324 29.6922C71.083 29.6922 69.687 28.1437 69.687 26.0897C69.687 24.0354 71.083 22.4873 72.9324 22.4873C74.7735 22.4871 76.111 24.0018 76.111 26.0895V26.0897ZM86.6037 19.742C82.957 19.742 80.1003 22.5498 80.1003 26.135C80.1003 29.6818 82.9382 32.4591 86.5598 32.4591C90.219 32.4591 93.084 29.6609 93.084 26.0897C93.084 22.5306 90.2378 19.7424 86.6037 19.7424V19.742ZM86.6037 29.7131C84.6644 29.7131 83.2015 28.1542 83.2015 26.0886C83.2015 24.0137 84.6142 22.508 86.5598 22.508C88.5116 22.508 89.9828 24.0664 89.9828 26.134C89.9828 28.2085 88.5618 29.7131 86.6037 29.7131ZM100.871 19.9895H97.8926V16.9455C97.8926 16.8364 97.8048 16.7474 97.6962 16.7474H94.9899C94.8812 16.7474 94.7914 16.8364 94.7914 16.9455V19.9895H93.4915C93.3829 19.9895 93.2951 20.0785 93.2951 20.1878V22.5131C93.2951 22.6221 93.3829 22.7114 93.4915 22.7114H94.7914V28.7288C94.7914 31.1592 96.0014 32.3922 98.39 32.3922C99.3596 32.3922 100.164 32.1916 100.923 31.7611C100.985 31.7277 101.023 31.6608 101.023 31.5897V29.3746C101.023 29.3077 100.988 29.2429 100.929 29.2074C100.871 29.1698 100.797 29.1677 100.737 29.199C100.216 29.4603 99.7128 29.5815 99.1485 29.5815C98.2813 29.5815 97.8926 29.1865 97.8926 28.3046V22.7124H100.871C100.979 22.7124 101.067 22.6234 101.067 22.5141V20.189C101.071 20.0797 100.983 19.9907 100.873 19.9907L100.871 19.9895ZM111.244 20.0014V19.6275C111.244 18.5277 111.666 18.0372 112.611 18.0372C113.175 18.0372 113.629 18.1492 114.136 18.3185C114.199 18.3381 114.264 18.3283 114.314 18.2909C114.366 18.2535 114.395 18.1935 114.395 18.13V15.85C114.395 15.7629 114.341 15.6858 114.255 15.6601C113.72 15.5006 113.035 15.337 112.007 15.337C109.51 15.337 108.187 16.7443 108.187 19.4052V19.9777H106.887C106.778 19.9777 106.688 20.0668 106.688 20.1759V22.5131C106.688 22.6221 106.778 22.7114 106.887 22.7114H108.187V31.991C108.187 32.1017 108.277 32.1895 108.385 32.1895H111.089C111.2 32.1895 111.288 32.1017 111.288 31.991V22.712H113.815L117.685 31.991C117.246 32.9648 116.813 33.1591 116.224 33.1591C115.748 33.1591 115.244 33.017 114.732 32.7349C114.684 32.7098 114.625 32.7057 114.575 32.7203C114.523 32.7391 114.479 32.7767 114.458 32.8269L113.541 34.8393C113.497 34.9354 113.534 35.0462 113.626 35.0964C114.584 35.6146 115.447 35.8361 116.514 35.8361C118.512 35.8361 119.618 34.9041 120.59 32.4006L125.283 20.2722C125.308 20.2112 125.3 20.1422 125.262 20.0881C125.227 20.0344 125.166 20.002 125.101 20.002H122.284C122.199 20.002 122.123 20.0557 122.096 20.1349L119.21 28.3757L116.051 20.1295C116.021 20.0528 115.948 20.002 115.867 20.002H111.244V20.0014ZM105.23 19.9895H102.524C102.415 19.9895 102.325 20.0785 102.325 20.1878V31.991C102.325 32.1017 102.415 32.1895 102.524 32.1895H105.23C105.338 32.1895 105.428 32.1017 105.428 31.991V20.1886C105.428 20.0793 105.341 19.9903 105.23 19.9903V19.9895ZM103.892 14.6148C102.82 14.6148 101.951 15.4825 101.951 16.5543C101.951 17.6268 102.82 18.4955 103.892 18.4955C104.964 18.4955 105.832 17.6268 105.832 16.5543C105.832 15.4827 104.962 14.6148 103.892 14.6148ZM127.594 23.7847C126.524 23.7847 125.691 22.9247 125.691 21.8805C125.691 20.8362 126.535 19.9665 127.605 19.9665C128.675 19.9665 129.509 20.8262 129.509 21.8696C129.509 22.9139 128.664 23.7847 127.594 23.7847ZM127.605 20.1558C126.629 20.1558 125.891 20.9311 125.891 21.8805C125.891 22.8294 126.625 23.5943 127.594 23.5943C128.57 23.5943 129.308 22.8196 129.308 21.8696C129.308 20.9206 128.575 20.1558 127.605 20.1558ZM128.027 22.0654L128.566 22.8194H128.111L127.626 22.1277H127.21V22.8194H126.83V20.8208H127.72C128.186 20.8208 128.491 21.0584 128.491 21.4583C128.493 21.786 128.303 21.9862 128.029 22.0654H128.027ZM127.705 21.1637H127.21V21.7958H127.705C127.952 21.7958 128.1 21.6748 128.1 21.4795C128.1 21.2738 127.952 21.1637 127.705 21.1637Z" fill="black"/>
</svg>
